<?xml version="1.0" encoding="UTF-8" standalone="no"?>
<svg
   xmlns:dc="http://purl.org/dc/elements/1.1/"
   xmlns:cc="http://creativecommons.org/ns#"
   xmlns:rdf="http://www.w3.org/1999/02/22-rdf-syntax-ns#"
   xmlns:svg="http://www.w3.org/2000/svg"
   xmlns="http://www.w3.org/2000/svg"
   xmlns:sodipodi="http://sodipodi.sourceforge.net/DTD/sodipodi-0.dtd"
   xmlns:inkscape="http://www.inkscape.org/namespaces/inkscape"
   width="161.79329mm"
   height="161.79329mm"
   viewBox="0 0 161.79329 161.79329"
   version="1.1"
   id="svg8"
   inkscape:version="1.0.2 (e86c870879, 2021-01-15)"
   sodipodi:docname="qubit_logo.svg">
  <defs
     id="defs2" />
  <sodipodi:namedview
     id="base"
     pagecolor="#ffffff"
     bordercolor="#666666"
     borderopacity="1.0"
     inkscape:pageopacity="0.0"
     inkscape:pageshadow="2"
     inkscape:zoom="0.4742105"
     inkscape:cx="220.29852"
     inkscape:cy="338.66591"
     inkscape:document-units="mm"
     inkscape:current-layer="layer1"
     inkscape:document-rotation="0"
     showgrid="false"
     inkscape:object-nodes="false"
     inkscape:snap-others="false"
     inkscape:snap-nodes="false"
     inkscape:snap-global="false"
     inkscape:window-width="1458"
     inkscape:window-height="1016"
     inkscape:window-x="370"
     inkscape:window-y="27"
     inkscape:window-maximized="0"
     fit-margin-top="0"
     fit-margin-left="0"
     fit-margin-right="0"
     fit-margin-bottom="0" />
  <metadata
     id="metadata5">
    <rdf:RDF>
      <cc:Work
         rdf:about="">
        <dc:format>image/svg+xml</dc:format>
        <dc:type
           rdf:resource="http://purl.org/dc/dcmitype/StillImage" />
        <dc:title></dc:title>
      </cc:Work>
    </rdf:RDF>
  </metadata>
  <g
     inkscape:label="Layer 1"
     inkscape:groupmode="layer"
     id="layer1"
     transform="translate(-16.320518,-45.183136)">
    <rect
       style="fill:#f9f9f9;stroke:#f2f2f2;stroke-width:0"
       id="rect870"
       width="196.23009"
       height="226.77084"
       x="234.10059"
       y="30.622337" />
    <circle
       cx="97.217163"
       cy="126.07978"
       fill="#252525"
       r="80.896645"
       id="circle928"
       style="fill-rule:evenodd;stroke-width:5.05604" />
    <path
       d="m 145.89672,143.14578 a 1.9212954,1.9212954 0 0 1 1.88085,1.94152 v 9.64187 h -31.74688 l -0.12134,-8.39303 a 1.8960151,1.8960151 0 0 1 0.67245,-1.43592 2.8516068,2.8516068 0 0 1 0.42471,-0.43987 c 13.99006,-9.75816 19.36463,-28.33911 12.85245,-44.41226 C 123.34173,83.974939 106.74275,74.879122 90.184214,78.307118 73.630738,81.730057 61.713651,96.731332 61.708595,114.15444 c -0.01011,11.90698 5.662765,23.05555 15.173177,29.80536 a 1.2185057,1.2185057 0 0 1 0.48538,0.50055 2.007248,2.007248 0 0 1 1.157833,1.81512 l -0.121345,8.39302 H 46.656762 v -9.64692 c 0,-1.07188 0.844359,-1.94152 1.880847,-1.94152 1.036489,0 1.880847,0.86964 1.880847,1.94152 v 5.82456 h 24.279106 l 0.06067,-3.63024 h -0.06067 C 60.737835,137.0937 54.746427,118.81106 59.883364,102.025 65.035469,85.238949 80.12775,73.832522 97.191886,73.832522 c 17.064134,0 32.156414,11.406427 37.298414,28.192478 5.14199,16.78606 -0.84942,35.0687 -14.8142,45.19089 l 0.0657,3.69091 h 24.2791 v -5.8195 a 1.9212954,1.9212954 0 0 1 1.88085,-1.94152 z m -25.06784,-26.17007 c 4.1864,5.32401 5.46052,10.08175 3.64034,13.21144 -1.39546,2.44206 -4.36841,3.75663 -8.68122,3.75663 a 33.015944,33.015944 0 0 1 -8.00877,-1.18817 c -2.36622,8.26663 -6.19364,13.59064 -10.562064,13.59064 -4.368419,0 -8.190785,-5.32401 -10.501396,-13.59064 a 33.015944,33.015944 0 0 1 -8.008768,1.18817 c -4.312802,0 -7.285754,-1.31457 -8.681221,-3.75663 -2.244882,-3.88304 0.303363,-9.95535 6.127921,-16.15405 a 35.058584,35.058584 0 0 1 -2.487572,-2.88195 c -4.186401,-5.32401 -5.460523,-10.02107 -3.640349,-13.277158 1.395467,-2.44207 4.368419,-3.75664 8.681221,-3.75664 a 33.015944,33.015944 0 0 1 8.008768,1.19323 c 2.366227,-8.266626 6.19365,-13.590637 10.562069,-13.590637 4.368421,0 8.190781,5.324011 10.501391,13.651307 a 33.015944,33.015944 0 0 1 8.00877,-1.18817 c 4.31281,0 7.28576,1.31457 8.68122,3.75664 1.82018,3.256088 0.54606,7.953148 -3.64034,13.277158 a 35.543964,35.543964 0 0 1 -2.48758,2.88195 c 0.87975,0.91008 1.70894,1.87073 2.48758,2.87688 z m -4.9802,-20.476958 a 34.370963,34.370963 0 0 0 -7.46272,1.06177 c 0.65223,2.972948 1.11233,5.986348 1.39547,9.019968 2.39656,1.76962 4.68695,3.69597 6.86104,5.76389 0.84942,-0.87975 1.63816,-1.82017 2.36623,-2.69487 3.45833,-4.44932 4.73245,-8.26663 3.45833,-10.582288 -1.15278,-2.1286 -4.24707,-2.56847 -6.61835,-2.56847 z m -13.34795,26.989138 c 1.7595,-1.06177 3.45833,-2.18926 5.03581,-3.31676 0.18202,-2.00725 0.24269,-4.00944 0.24269,-6.13803 0,-2.1286 -0.12134,-4.19652 -0.24269,-6.13804 a 79.212985,79.212985 0 0 0 -5.04087,-3.25609 108.09814,108.09814 0 0 0 -5.278504,-2.81621 c -1.810062,0.8393 -3.569564,1.77973 -5.278506,2.81621 -1.820174,1.06177 -3.463387,2.1286 -5.040872,3.25609 -0.182018,1.94152 -0.24269,4.00944 -0.24269,6.13804 0,2.12353 0.121345,4.19651 0.24269,6.13803 a 79.212985,79.212985 0 0 0 10.319378,6.13298 c 1.810063,-0.83931 3.569564,-1.77973 5.278504,-2.81622 z m 4.79312,-0.18707 c -1.21344,0.74829 -2.36622,1.50164 -3.57967,2.25499 -1.21345,0.7483 -2.4269,1.44097 -3.64035,2.06287 1.99208,0.89997 4.03978,1.67355 6.12792,2.32072 0.42471,-2.06792 0.78874,-4.26224 1.0921,-6.63858 z m -12.806945,4.31786 -3.64035,-2.06287 c -1.213449,-0.75335 -2.426899,-1.5067 -3.584732,-2.25499 0.21741,2.23477 0.581444,4.44931 1.092105,6.63858 2.083088,-0.65728 4.130785,-1.43086 6.132977,-2.32072 z m -9.955344,-9.26772 a 96.990023,96.990023 0 0 1 -0.121345,-4.31786 c 0,-1.50165 0.06067,-2.88195 0.121345,-4.32292 -1.764558,1.3348 -3.44822,2.77577 -5.035816,4.32292 1.597709,1.53198 3.28137,2.97801 5.035816,4.31786 z m 2.730262,-13.45918 a 49.296394,49.296394 0 0 1 3.519004,-2.255 c 1.279178,-0.75335 2.492628,-1.44097 3.706078,-2.06792 -1.997136,-0.899968 -4.044833,-1.668488 -6.132977,-2.315658 -0.424708,2.062858 -0.788743,4.257178 -1.092105,6.638578 z m 12.746277,-4.32292 c 1.21345,0.62695 2.4269,1.31457 3.64035,2.06792 1.21345,0.7483 2.4269,1.50165 3.58473,2.255 a 50.171089,50.171089 0 0 0 -1.0921,-6.638578 c -2.08309,0.65728 -4.13079,1.4258 -6.13298,2.315658 z m 10.01602,9.202 c 0.0607,1.44602 0.12134,2.82127 0.12134,4.32291 0,1.50164 -0.0607,2.94262 -0.12134,4.32291 1.7595,-1.44097 3.45833,-2.88194 4.97514,-4.32291 a 49.372235,49.372235 0 0 0 -4.97514,-4.31786 z M 97.277839,84.10134 c -3.094297,0 -6.249266,4.383587 -8.317187,11.831132 2.841495,0.89492 5.617261,1.98197 8.317187,3.25104 a 66.461651,66.461651 0 0 1 8.317191,-3.24598 C 103.5271,88.484927 100.31146,84.10134 97.277839,84.10134 Z M 72.088646,99.067222 c -1.334795,2.315658 -0.06067,6.198698 3.458331,10.516558 0.72807,0.93537 1.516812,1.81006 2.366227,2.75049 2.163985,-2.07298 4.449316,-3.99427 6.861047,-5.75378 0.278082,-3.03362 0.743238,-6.04702 1.395467,-9.014918 -2.437011,-0.65728 -4.944807,-1.0112 -7.462716,-1.06682 -2.371282,0 -5.404907,0.43987 -6.618356,2.56847 z m 6.618356,32.560898 c 2.522965,-0.0506 5.030761,-0.42977 7.462716,-1.13256 a 73.676621,73.676621 0 0 1 -1.395467,-9.00986 c -2.442068,-1.73928 -4.752678,-3.66563 -6.921719,-5.76389 -5.217834,5.57682 -7.280699,10.5823 -5.763886,13.33784 1.152777,2.12859 4.247074,2.56847 6.618356,2.56847 z m 18.570837,12.39741 c 3.033621,0 6.249261,-4.38359 8.317191,-11.83114 a 66.466707,66.466707 0 0 1 -8.317191,-3.25609 67.346458,67.346458 0 0 1 -8.317187,3.25609 c 2.067921,7.44755 5.283563,11.83114 8.317187,11.83114 z m 25.189191,-14.96588 c 1.27412,-2.25499 0,-6.13298 -3.45833,-10.58229 a 46.960503,46.960503 0 0 0 -2.36623,-2.68982 c -2.16398,2.07298 -4.44931,3.99428 -6.86104,5.76389 a 73.403595,73.403595 0 0 1 -1.39547,9.01492 c 2.43701,0.65223 4.94481,1.01121 7.46272,1.06177 2.37128,0 5.4049,-0.43988 6.61835,-2.56847 z M 97.277839,104.89178 c 4.904361,0 8.888521,4.08022 8.923911,9.14132 0,5.04087 -3.95888,9.13121 -8.843014,9.14132 -4.884135,0.0101 -8.858183,-4.06 -8.883463,-9.10087 -0.02022,-5.04088 3.918431,-9.15144 8.802566,-9.18177 z m 0,15.96697 c 3.610011,-0.0303 6.527351,-3.03868 6.557681,-6.76498 0,-3.73641 -2.9325,-6.75993 -6.557681,-6.75993 -3.625181,0 -6.557685,3.02352 -6.557685,6.75993 0,3.73641 2.93756,6.76498 6.557685,6.76498 z"
       fill="#ffffff"
       fill-rule="nonzero"
       id="path930"
       style="stroke-width:5.05604" />
    <text
       xml:space="preserve"
       style="font-style:normal;font-variant:normal;font-weight:normal;font-stretch:normal;font-size:10.5833px;line-height:1.25;font-family:'Fira Sans';-inkscape-font-specification:'Fira Sans';white-space:pre;inline-size:0;fill:#f9f9f9;fill-opacity:1;stroke:none;stroke-width:0.264583"
       x="31.382109"
       y="24.675951"
       id="text953"
       transform="matrix(2.7873253,0,0,2.7873253,-31.81916,117.10413)"><tspan
         id="tspan951"
         x="31.382109"
         y="24.675951"
         style="font-style:normal;font-variant:normal;font-weight:normal;font-stretch:normal;font-family:'Fira Sans';-inkscape-font-specification:'Fira Sans';fill:#f9f9f9;stroke-width:0.264583">QUBIT</tspan></text>
  </g>
</svg>
