<svg height="161.79329mm" viewBox="0 0 161.79329 161.79329" width="161.79329mm" xmlns="http://www.w3.org/2000/svg"><g transform="translate(-16.320518 -45.183136)"><path d="m234.10059 30.622337h196.23009v226.77084h-196.23009z" fill="#f9f9f9"/><circle cx="97.217163" cy="126.07978" fill="#252525" fill-rule="evenodd" r="80.896645" stroke-width="5.05604"/><path d="m145.89672 143.14578a1.9212954 1.9212954 0 0 1 1.88085 1.94152v9.64187h-31.74688l-.12134-8.39303a1.8960151 1.8960151 0 0 1 .67245-1.43592 2.8516068 2.8516068 0 0 1 .42471-.43987c13.99006-9.75816 19.36463-28.33911 12.85245-44.41226-6.51723-16.073151-23.11621-25.168968-39.674746-21.740972-16.553476 3.422939-28.470563 18.424214-28.475619 35.847322-.01011 11.90698 5.662765 23.05555 15.173177 29.80536a1.2185057 1.2185057 0 0 1 .48538.50055 2.007248 2.007248 0 0 1 1.157833 1.81512l-.121345 8.39302h-31.746878v-9.64692c0-1.07188.844359-1.94152 1.880847-1.94152 1.036489 0 1.880847.86964 1.880847 1.94152v5.82456h24.279106l.06067-3.63024h-.06067c-13.959727-10.12219-19.951135-28.40483-14.814198-45.19089 5.152105-16.786051 20.244386-28.192478 37.308522-28.192478 17.064134 0 32.156414 11.406427 37.298414 28.192478 5.14199 16.78606-.84942 35.0687-14.8142 45.19089l.0657 3.69091h24.2791v-5.8195a1.9212954 1.9212954 0 0 1 1.88085-1.94152zm-25.06784-26.17007c4.1864 5.32401 5.46052 10.08175 3.64034 13.21144-1.39546 2.44206-4.36841 3.75663-8.68122 3.75663a33.015944 33.015944 0 0 1 -8.00877-1.18817c-2.36622 8.26663-6.19364 13.59064-10.562064 13.59064-4.368419 0-8.190785-5.32401-10.501396-13.59064a33.015944 33.015944 0 0 1 -8.008768 1.18817c-4.312802 0-7.285754-1.31457-8.681221-3.75663-2.244882-3.88304.303363-9.95535 6.127921-16.15405a35.058584 35.058584 0 0 1 -2.487572-2.88195c-4.186401-5.32401-5.460523-10.02107-3.640349-13.277158 1.395467-2.44207 4.368419-3.75664 8.681221-3.75664a33.015944 33.015944 0 0 1 8.008768 1.19323c2.366227-8.266626 6.19365-13.590637 10.562069-13.590637 4.368421 0 8.190781 5.324011 10.501391 13.651307a33.015944 33.015944 0 0 1 8.00877-1.18817c4.31281 0 7.28576 1.31457 8.68122 3.75664 1.82018 3.256088.54606 7.953148-3.64034 13.277158a35.543964 35.543964 0 0 1 -2.48758 2.88195c.87975.91008 1.70894 1.87073 2.48758 2.87688zm-4.9802-20.476958a34.370963 34.370963 0 0 0 -7.46272 1.06177c.65223 2.972948 1.11233 5.986348 1.39547 9.019968 2.39656 1.76962 4.68695 3.69597 6.86104 5.76389.84942-.87975 1.63816-1.82017 2.36623-2.69487 3.45833-4.44932 4.73245-8.26663 3.45833-10.582288-1.15278-2.1286-4.24707-2.56847-6.61835-2.56847zm-13.34795 26.989138c1.7595-1.06177 3.45833-2.18926 5.03581-3.31676.18202-2.00725.24269-4.00944.24269-6.13803 0-2.1286-.12134-4.19652-.24269-6.13804a79.212985 79.212985 0 0 0 -5.04087-3.25609 108.09814 108.09814 0 0 0 -5.278504-2.81621c-1.810062.8393-3.569564 1.77973-5.278506 2.81621-1.820174 1.06177-3.463387 2.1286-5.040872 3.25609-.182018 1.94152-.24269 4.00944-.24269 6.13804 0 2.12353.121345 4.19651.24269 6.13803a79.212985 79.212985 0 0 0 10.319378 6.13298c1.810063-.83931 3.569564-1.77973 5.278504-2.81622zm4.79312-.18707c-1.21344.74829-2.36622 1.50164-3.57967 2.25499-1.21345.7483-2.4269 1.44097-3.64035 2.06287 1.99208.89997 4.03978 1.67355 6.12792 2.32072.42471-2.06792.78874-4.26224 1.0921-6.63858zm-12.806945 4.31786-3.64035-2.06287c-1.213449-.75335-2.426899-1.5067-3.584732-2.25499.21741 2.23477.581444 4.44931 1.092105 6.63858 2.083088-.65728 4.130785-1.43086 6.132977-2.32072zm-9.955344-9.26772a96.990023 96.990023 0 0 1 -.121345-4.31786c0-1.50165.06067-2.88195.121345-4.32292-1.764558 1.3348-3.44822 2.77577-5.035816 4.32292 1.597709 1.53198 3.28137 2.97801 5.035816 4.31786zm2.730262-13.45918a49.296394 49.296394 0 0 1 3.519004-2.255c1.279178-.75335 2.492628-1.44097 3.706078-2.06792-1.997136-.899968-4.044833-1.668488-6.132977-2.315658-.424708 2.062858-.788743 4.257178-1.092105 6.638578zm12.746277-4.32292c1.21345.62695 2.4269 1.31457 3.64035 2.06792 1.21345.7483 2.4269 1.50165 3.58473 2.255a50.171089 50.171089 0 0 0 -1.0921-6.638578c-2.08309.65728-4.13079 1.4258-6.13298 2.315658zm10.01602 9.202c.0607 1.44602.12134 2.82127.12134 4.32291s-.0607 2.94262-.12134 4.32291c1.7595-1.44097 3.45833-2.88194 4.97514-4.32291a49.372235 49.372235 0 0 0 -4.97514-4.31786zm-12.746281-25.66952c-3.094297 0-6.249266 4.383587-8.317187 11.831132 2.841495.89492 5.617261 1.98197 8.317187 3.25104a66.461651 66.461651 0 0 1 8.317191-3.24598c-2.06793-7.452605-5.28357-11.836192-8.317191-11.836192zm-25.189193 14.965882c-1.334795 2.315658-.06067 6.198698 3.458331 10.516558.72807.93537 1.516812 1.81006 2.366227 2.75049 2.163985-2.07298 4.449316-3.99427 6.861047-5.75378.278082-3.03362.743238-6.04702 1.395467-9.014918-2.437011-.65728-4.944807-1.0112-7.462716-1.06682-2.371282 0-5.404907.43987-6.618356 2.56847zm6.618356 32.560898c2.522965-.0506 5.030761-.42977 7.462716-1.13256a73.676621 73.676621 0 0 1 -1.395467-9.00986c-2.442068-1.73928-4.752678-3.66563-6.921719-5.76389-5.217834 5.57682-7.280699 10.5823-5.763886 13.33784 1.152777 2.12859 4.247074 2.56847 6.618356 2.56847zm18.570837 12.39741c3.033621 0 6.249261-4.38359 8.317191-11.83114a66.466707 66.466707 0 0 1 -8.317191-3.25609 67.346458 67.346458 0 0 1 -8.317187 3.25609c2.067921 7.44755 5.283563 11.83114 8.317187 11.83114zm25.189191-14.96588c1.27412-2.25499 0-6.13298-3.45833-10.58229a46.960503 46.960503 0 0 0 -2.36623-2.68982c-2.16398 2.07298-4.44931 3.99428-6.86104 5.76389a73.403595 73.403595 0 0 1 -1.39547 9.01492c2.43701.65223 4.94481 1.01121 7.46272 1.06177 2.37128 0 5.4049-.43988 6.61835-2.56847zm-25.189191-24.16787c4.904361 0 8.888521 4.08022 8.923911 9.14132 0 5.04087-3.95888 9.13121-8.843014 9.14132-4.884135.0101-8.858183-4.06-8.883463-9.10087-.02022-5.04088 3.918431-9.15144 8.802566-9.18177zm0 15.96697c3.610011-.0303 6.527351-3.03868 6.557681-6.76498 0-3.73641-2.9325-6.75993-6.557681-6.75993s-6.557685 3.02352-6.557685 6.75993 2.93756 6.76498 6.557685 6.76498z" fill="#fff" stroke-width="5.05604"/><text fill="#f9f9f9" font-family="Fira Sans" font-size="10.5833" stroke-width=".264583" transform="matrix(2.7873253 0 0 2.7873253 -31.81916 117.10413)" x="31.382109" y="24.675951"><tspan fill="#f9f9f9" font-family="Fira Sans" stroke-width=".264583" x="31.382109" y="24.675951">QUBIT</tspan></text></g></svg>